<?xml version="1.0" standalone="no"?>
<!DOCTYPE svg PUBLIC "-//W3C//DTD SVG 20010904//EN"
 "http://www.w3.org/TR/2001/REC-SVG-20010904/DTD/svg10.dtd">
<svg version="1.0" xmlns="http://www.w3.org/2000/svg"
 width="225.000000pt" height="225.000000pt" viewBox="0 0 225.000000 225.000000"
 preserveAspectRatio="xMidYMid meet">
<metadata>
Created by potrace 1.14, written by Peter Selinger 2001-2017
</metadata>
<g transform="translate(0.000000,225.000000) scale(0.100000,-0.100000)"
fill="#000000" stroke="none">
<path d="M1503 1746 c-25 -12 -29 -26 -12 -43 8 -8 5 -15 -12 -24 -13 -7 -28
-12 -32 -11 -14 4 -50 -20 -41 -27 13 -9 34 -58 34 -80 0 -10 -12 -23 -27 -30
-24 -11 -291 -119 -491 -198 -64 -26 -85 -25 -62 2 10 12 9 15 -6 15 -14 0
-24 14 -38 53 -10 28 -27 70 -37 91 -17 36 -17 41 -4 57 10 10 32 17 62 17 51
1 58 5 50 25 -7 19 -288 32 -299 14 -14 -23 39 -63 129 -99 34 -13 50 -43 27
-52 -9 -3 -14 2 -14 14 0 11 -5 20 -11 20 -6 0 -9 -10 -7 -22 2 -16 11 -24 29
-26 22 -3 31 -13 48 -54 15 -36 18 -54 10 -58 -7 -5 -5 -9 5 -13 22 -9 20 -39
-4 -64 -28 -30 -58 -38 -78 -19 -30 26 -125 65 -182 73 -228 34 -434 -114
-469 -338 -29 -179 67 -358 238 -442 62 -30 72 -32 176 -32 103 0 114 2 178
32 81 38 152 108 187 182 24 52 24 53 62 47 127 -20 117 -21 154 15 31 30 35
32 61 19 41 -19 99 -24 109 -9 11 18 -33 49 -70 49 -51 0 -74 10 -80 35 -6 22
20 71 137 255 19 30 65 103 101 162 37 58 83 121 103 138 l37 33 17 -22 c9
-11 21 -21 27 -21 16 0 41 -35 57 -80 15 -42 15 -46 -1 -55 -96 -57 -169 -144
-204 -242 -19 -54 -22 -78 -18 -152 11 -186 125 -328 302 -376 259 -70 519
113 534 375 7 126 -24 214 -106 303 -94 100 -195 141 -336 135 -89 -3 -90 -3
-97 22 -4 14 -7 19 -8 13 -1 -7 -10 -22 -22 -34 l-21 -21 7 22 c5 14 3 20 -3
16 -6 -4 -8 2 -4 16 3 14 1 19 -6 14 -8 -5 -10 -2 -6 9 11 27 -5 65 -26 65
-13 0 -20 7 -20 20 0 11 7 20 15 20 8 0 15 5 15 12 0 6 3 8 7 5 3 -4 14 0 24
9 19 17 20 14 33 -106 2 -19 3 8 3 60 0 52 3 119 7 148 6 34 5 52 -2 52 -6 0
-19 3 -29 7 -17 6 -17 6 0 -14 25 -29 21 -72 -10 -107 -26 -28 -26 -29 -3 -11
l25 20 -19 -22 c-10 -13 -23 -20 -28 -17 -5 3 -16 0 -24 -7 -18 -15 -19 -14
-54 57 l-29 59 37 17 c20 9 50 20 65 23 15 3 25 10 22 15 -4 6 3 7 19 0 20 -7
24 -6 20 5 -3 7 -12 16 -20 19 -8 3 -14 18 -14 33 -1 25 -2 26 -14 11 -16 -22
-26 -23 -26 -3 0 17 -15 18 -47 1z m-743 -190 c0 -11 -19 -15 -25 -6 -3 5 1
10 9 10 9 0 16 -2 16 -4z m-58 -18 c-7 -7 -16 -7 -28 0 -14 8 -13 10 10 10 18
0 24 -4 18 -10z m808 -53 c0 -5 -5 -3 -10 5 -5 8 -10 20 -10 25 0 6 5 3 10 -5
5 -8 10 -19 10 -25z m-143 -43 c-10 -10 -17 -24 -17 -30 0 -7 -4 -12 -9 -12
-5 0 -13 -9 -16 -20 -4 -11 -10 -18 -15 -15 -10 6 -22 -23 -14 -36 3 -5 -2
-12 -10 -15 -9 -3 -16 -12 -16 -20 0 -8 -4 -14 -10 -14 -5 0 -10 -7 -10 -15 0
-8 -4 -15 -10 -15 -5 0 -12 -11 -16 -25 -3 -13 -12 -29 -20 -36 -8 -6 -14 -18
-14 -27 0 -8 -11 -25 -24 -37 -14 -13 -23 -25 -20 -27 2 -3 -7 -17 -20 -31
-13 -14 -22 -28 -19 -30 7 -7 -25 -65 -48 -88 -10 -10 -27 -19 -36 -19 -18 0
-53 50 -53 74 0 12 -51 151 -75 203 -8 17 -15 37 -15 45 0 19 280 126 373 142
84 15 116 28 45 19 -52 -7 -46 2 18 27 62 24 71 24 51 2z m-122 -2 c-3 -5 -12
-10 -18 -10 -7 0 -6 4 3 10 19 12 23 12 15 0z m-355 -315 c62 -160 62 -162 37
-185 -29 -28 -37 -25 -37 13 0 34 -37 132 -64 170 -9 12 -23 32 -31 43 -15 20
-14 24 11 53 15 18 30 29 34 24 4 -4 27 -57 50 -118z m1025 76 c144 -71 215
-232 170 -386 -23 -81 -95 -181 -122 -170 -8 2 -11 1 -8 -5 4 -7 -25 -31 -45
-36 -20 -4 -39 -17 -35 -24 2 -4 -7 -5 -22 -2 -14 3 -23 1 -20 -4 3 -5 -31 -7
-81 -4 -53 3 -87 9 -89 17 -3 7 -10 10 -18 7 -19 -8 -84 28 -128 71 -141 137
-123 387 36 505 l42 31 18 -38 c12 -28 16 -56 14 -103 -2 -36 -2 -50 0 -32 5
41 24 37 37 -7 7 -25 6 -35 -4 -41 -8 -5 -18 -6 -22 -4 -13 8 1 -44 24 -93 18
-39 24 -45 44 -42 3 0 14 -10 25 -22 10 -12 19 -17 19 -11 0 7 8 12 19 12 29
0 73 40 68 61 -3 11 -1 16 4 13 19 -11 -2 61 -21 75 -11 7 -20 21 -20 30 0 9
-3 12 -8 6 -4 -5 -20 -10 -37 -10 -29 0 -31 4 -67 109 -21 59 -35 112 -32 117
8 13 42 11 47 -3 3 -7 6 -5 6 6 2 31 123 17 206 -23z m-1495 17 c0 31 171 4
234 -37 l29 -20 -85 -39 c-60 -28 -93 -50 -112 -75 -15 -20 -36 -39 -47 -42
-11 -4 -17 -11 -13 -16 3 -6 0 -17 -8 -26 -10 -13 -10 -15 0 -9 7 4 4 -7 -7
-25 -18 -29 -18 -35 -5 -60 16 -32 19 -69 5 -69 -20 0 -41 13 -41 25 0 8 -4
16 -9 19 -5 4 -7 -3 -4 -14 3 -12 22 -29 42 -40 l36 -19 -37 4 c-42 5 -42 6
-28 -29 7 -19 17 -26 35 -26 14 0 25 -4 25 -10 0 -5 16 -10 35 -10 19 0 35 5
35 10 0 6 7 10 15 10 8 0 15 3 15 8 0 4 -25 6 -55 5 -56 -2 -75 12 -31 23 13
3 34 16 47 30 12 13 26 21 31 18 5 -3 8 -2 7 3 -3 18 1 36 8 30 3 -4 12 -2 20
4 7 6 22 9 33 6 12 -3 18 -1 14 5 -6 9 11 8 156 -8 53 -6 54 -7 45 -33 -4 -12
-16 -21 -28 -22 -17 -1 -18 -2 -4 -6 17 -4 24 -22 10 -24 -60 -9 -150 -17
-195 -18 -27 -1 -48 -4 -48 -9 0 -4 37 -4 83 0 120 10 147 9 147 -2 0 -20 -89
-106 -129 -126 -21 -10 -38 -21 -36 -25 2 -3 -46 -5 -108 -5 -97 1 -118 4
-156 24 -119 64 -192 177 -193 301 -1 109 38 193 119 260 48 39 135 74 145 57
6 -8 8 -8 8 2z m191 -152 c-83 -83 -101 -93 -101 -56 0 10 -6 20 -12 23 -22 8
27 46 105 82 40 19 76 34 82 34 5 1 -28 -37 -74 -83z m179 -54 c40 -107 27
-119 -118 -109 -80 6 -109 18 -96 39 3 4 0 8 -7 8 -8 0 -7 5 2 17 12 15 12 16
-1 8 -8 -5 21 29 65 74 l80 82 28 -33 c15 -18 36 -56 47 -86z m330 -27 c-7 -8
-18 -15 -24 -15 -6 0 -2 7 8 15 25 19 32 19 16 0z m683 -26 c4 -5 4 -7 1 -4
-4 2 -16 -1 -27 -7 -17 -8 -19 -8 -14 5 4 11 2 14 -9 10 -7 -3 -14 0 -14 7 0
14 50 5 63 -11z m14 -59 c-3 -42 -15 -38 -14 4 0 19 4 33 9 30 4 -3 6 -18 5
-34z m-887 10 c0 -5 -7 -10 -16 -10 -8 0 -12 5 -9 10 3 6 10 10 16 10 5 0 9
-4 9 -10z m814 -55 c25 -19 16 -19 -20 0 -16 8 -22 15 -14 15 8 -1 24 -7 34
-15z m-844 -45 c0 -11 -4 -20 -9 -20 -5 0 -7 9 -4 20 3 11 7 20 9 20 2 0 4 -9
4 -20z m7 -36 c-3 -3 -12 -4 -19 -1 -8 3 -5 6 6 6 11 1 17 -2 13 -5z m-364
-221 c-7 -2 -21 -2 -30 0 -10 3 -4 5 12 5 17 0 24 -2 18 -5z m-46 -29 c-3 -3
-12 -4 -19 -1 -8 3 -5 6 6 6 11 1 17 -2 13 -5z m1290 0 c-3 -3 -12 -4 -19 -1
-8 3 -5 6 6 6 11 1 17 -2 13 -5z"/>
<path d="M1598 933 c7 -3 16 -2 19 1 4 3 -2 6 -13 5 -11 0 -14 -3 -6 -6z"/>
<path d="M1705 730 c-10 -16 4 -30 30 -30 34 0 41 18 10 30 -32 12 -32 12 -40
0z"/>
<path d="M365 879 c-4 -6 -5 -12 -2 -15 2 -3 7 2 10 11 7 17 1 20 -8 4z"/>
<path d="M590 806 c0 -7 26 -11 68 -12 37 -1 58 1 47 3 -11 2 -27 7 -35 10
-29 10 -80 10 -80 -1z"/>
</g>
</svg>
